<svg xmlns="http://www.w3.org/2000/svg" viewBox="0 0 48 48"><defs><style>.cls-1{fill:#000000;}.cls-2{fill:
#1F1C1C;}.cls-3{fill:#B4B1BD;}.cls-4{fill:#FFFFFF;}</style></defs><title>Percent</title><g id="Percent"><path class="cls-1" d="M42.52,29l1.4,6.54-6.37,2-2,6.37L29,42.52,24,47l-5-4.48-6.54,1.4-2.05-6.37-6.37-2L5.48,29,1,24l4.48-5L4.08,12.5c7.3-2.35,6.31-1.88,6.51-2.48L12.5,4.08,19,5.48,24,1l5,4.48,6.54-1.4,2,6.37,6.37,2.05L42.52,19,47,24Z"/><path class="cls-2" d="M39.83,36.81l-2.28.74-2,6.37L29,42.52,24,47l-5-4.48-6.54,1.4-2.05-6.37-6.37-2L5.48,29,1,24l4.48-5L4.08,12.5c7.3-2.35,6.31-1.88,6.51-2.48A30,30,0,0,1,39.83,36.81Z"/><circle class="cls-3" cx="24" cy="24" r="15"/><path class="cls-4" d="M24,9a15,15,0,0,0-12,6A15,15,0,0,1,33,36C44.5,27.34,38.38,9,24,9Z"/><path class="cls-1" d="M17,32a1,1,0,0,1-.71-1.71l14-14a1,1,0,0,1,1.42,1.42C16.41,33,17.59,32,17,32Z"/><path class="cls-1" d="M19,23a4,4,0,1,1,4-4A4,4,0,0,1,19,23Zm0-6a2,2,0,1,0,2,2A2,2,0,0,0,19,17Z"/><path class="cls-1" d="M29,33a4,4,0,1,1,4-4A4,4,0,0,1,29,33Zm0-6a2,2,0,1,0,2,2A2,2,0,0,0,29,27Z"/></g></svg>